# xmcd
#
# Track frame offsets:
#	293
#	13966
#	27482
#	42277
#	58808
#	68228
#	82650
#	103327
#	115523
#	130295
#
# Disc length: 1967 seconds
#
# Revision: 1
# Processed by: cddbd v1.5.1PL0 Copyright (c) Steve Scherf et al.
# Submitted via: MusicWizard 7.1.1b
#
DISCID=8607ac0a
DTITLE=Jim Rooney - Ready For The Times To Get Better
DYEAR=1980
DGENRE=Country
TTITLE0=In It For The Long Run
TTITLE1=Only The Best
TTITLE2=I Recall A Gypsy Woman
TTITLE3=Broided Orange
TTITLE4=Ready For The Times To Get Better
TTITLE5=South In New Orleans
TTITLE6=Tennessee Blues
TTITLE7=Interest On The Loan
TTITLE8=The Girl At The End Of The Hall
TTITLE9=No Expectations
EXTD=(c)1980Appaloosa\nLP Katalog: AP 004\nSpecial thanks to Jack Clement, Bob Webster, Curt Allen
EXTD=, David Gessner,and 'The Wild Bunch'.\nExecutive Producer: Franco Ratti\n
EXTT0=Songwriter: Jim Rooney - Minglewood Music ASCAP\\r\nArrangement: DavidGessner and Jim Rooney
EXTT1=Songwriter: Jim Rooney - Sorrel/United Artists MusicASCAP\\r\nArrangement: David Gessner and 
EXTT1=Jim Rooney
EXTT2=Songwriter: Bob McDill and Allen Reynolds - Jack MusicBMI\\r\nArrangement: Jack Clement and C
EXTT2=urt Allen
EXTT3=Songwriter: John Prine - ASCAP\\r\nArrangement: Jim Rooney
EXTT4=Songwriter: Allen Reynolds - Aunt Polly's Publ Co. BMI\\r\nArrangement:Jim Rooney
EXTT5=Songwriter: Johnny Wright/J. and J. Anglin - Unichappell MusicBMI\\r\nArrangement: Jack Clement
EXTT5=and Curt Allen
EXTT6=Songwriter: Bobby Charles - Street People Songs ASCAP\\r\nArrangement: JimRooney
EXTT7=Songwriter: Jim Rooney - Jando Music ASCAP\\r\nArrangement: Jim Rooney
EXTT8=Songwriter: Jim Rooney and Lamar Hill - Jando Music (ASCAP) and Jack Music(BMI)\\r\nArrangement: 
EXTT8=Jim Rooney
EXTT9=Songwriter: Mick Jagger and Keith Richards - ABKO Music BMI\\r\nArrangement:Jack Clement and Cu
EXTT9=rt Allen
PLAYORDER=
